# Blender v2.81 (sub 16) OBJ File: ''
# www.blender.org
mtllib room0.mtl
o Plane
v -1.000000 0.000000 -1.000000
v 1.000000 0.000000 -1.000000
v -1.000000 1.000000 -1.000000
v 1.000000 1.000000 -1.000000
v 1.000000 0.000000 1.000000
v 1.000000 1.000000 1.000000
v -0.000000 0.000000 1.000000
v -0.000000 1.000000 1.000000
v -0.000000 0.000000 3.000000
v -0.000000 1.000000 3.000000
v -0.000000 1.000000 2.000000
v -0.000000 0.000000 2.000000
v 2.000000 1.000000 2.000000
v 2.000000 0.000000 2.000000
v -1.000000 0.000000 0.000000
v -1.000000 1.000000 0.000000
v -2.000000 0.000000 0.000000
v -2.000000 1.000000 0.000000
v -2.000000 0.000000 2.000000
v -2.000000 1.000000 2.000000
v -1.000000 0.000000 1.000000
v -1.000000 1.000000 1.000000
v -3.000000 0.000000 2.000000
v -3.000000 1.000000 2.000000
v -3.000000 0.000000 3.000000
v -3.000000 1.000000 3.000000
v 3.000000 0.000000 3.000000
v 3.000000 1.000000 3.000000
v 3.000000 0.000000 1.000000
v 3.000000 1.000000 1.000000
v 2.000000 0.000000 1.000000
v 2.000000 1.000000 1.000000
v 2.215164 0.000000 -1.000000
v 2.215164 1.000000 -1.000000
v 3.000000 0.000000 -2.000000
v 3.000000 1.000000 -2.000000
v 3.000000 0.000000 -3.000000
v 3.000000 1.000000 -3.000000
v 1.000000 0.000000 -2.000000
v 1.000000 1.000000 -2.000000
v 0.000000 0.000000 -3.000000
v 0.000000 1.000000 -3.000000
v 0.000000 0.000000 -2.000000
v 0.000000 1.000000 -2.000000
v -3.000000 0.000000 -3.000000
v -3.000000 1.000000 -3.000000
v -3.000000 0.000000 -3.000000
v -3.000000 1.000000 -3.000000
v -2.000000 0.000000 -2.000000
v -2.000000 1.000000 -2.000000
v -1.000000 0.000000 -2.000000
v -1.000000 1.000000 -2.000000
v -1.000000 0.000000 2.000000
v -1.000000 1.000000 2.000000
v 3.000000 1.000000 3.000000
v 2.000000 1.000000 3.000000
v -1.000000 1.000000 -1.000000
v -1.000000 1.000000 1.000000
v 0.000000 1.000000 -2.000000
v -3.000000 1.000000 -2.000000
v -1.000000 1.000000 0.000000
v -1.000000 1.000000 -2.000000
v 1.000000 1.000000 -2.000000
v 2.215164 1.000000 -2.000000
vt 0.750000 0.750000
vt 0.750000 0.500000
vt 0.875000 0.500000
vt 0.875000 0.750000
vt 0.625000 0.625000
vt 0.750000 0.625000
vt 0.750000 0.875000
vt 0.625000 0.875000
vt 0.500000 1.000000
vt 0.500000 0.875000
vt 0.625000 0.875000
vt 0.625000 1.000000
vt 0.875000 0.750000
vt 1.000000 0.750000
vt 1.000000 0.875000
vt 0.875000 0.875000
vt 0.875000 0.500000
vt 0.750000 0.500000
vt 0.750000 0.250000
vt 0.875000 0.250000
vt 0.500000 0.625000
vt 0.375000 0.625000
vt 0.375000 0.500000
vt 0.500000 0.500000
vt 0.250000 1.000000
vt 0.250000 0.875000
vt 0.375000 0.875000
vt 0.375000 1.000000
vt 0.375000 0.250000
vt 0.250000 0.250000
vt 0.250000 0.000000
vt 0.375000 0.000000
vt 0.625000 1.000000
vt 0.625000 0.875000
vt 0.750000 0.875000
vt 0.750000 1.000000
vt 0.125000 0.750000
vt 0.250000 0.750000
vt 0.250000 0.875000
vt 0.125000 0.875000
vt 0.000000 0.375000
vt 0.125000 0.375000
vt 0.125000 0.750000
vt 0.000000 0.750000
vt 0.000000 0.000000
vt 0.125000 0.000000
vt 1.000000 0.500000
vt 0.875000 0.500000
vt 0.875000 0.250000
vt 1.000000 0.250000
vt 0.125000 1.000000
vt 0.125000 0.875000
vt 0.250000 0.875000
vt 0.250000 1.000000
vt 0.875000 0.901895
vt 0.750000 0.901895
vt 0.750000 0.750000
vt 0.875000 0.750000
vt 0.500000 0.500000
vt 0.375000 0.500000
vt 0.375000 0.125000
vt 0.500000 0.125000
vt 0.375000 0.000000
vt 0.500000 0.000000
vt 0.500000 0.625000
vt 0.625000 0.625000
vt 0.625000 0.875000
vt 0.500000 0.875000
vt 0.625000 0.250000
vt 0.750000 0.250000
vt 0.750000 0.625000
vt 0.625000 0.625000
vt 0.875000 0.000000
vt 1.000000 0.000000
vt 1.000000 0.125000
vt 0.875000 0.125000
vt 0.500000 0.250000
vt 0.625000 0.250000
vt 0.625000 0.625000
vt 0.500000 0.625000
vt 0.250000 0.625000
vt 0.125000 0.625000
vt 0.125000 0.000000
vt 0.250000 0.000000
vt 0.375000 0.500000
vt 0.250000 0.500000
vt 0.500000 0.750000
vt 0.375000 0.750000
vt 0.125000 0.625000
vt 0.250000 0.625000
vt 0.875000 0.250000
vt 0.750000 0.250000
vt 0.750000 0.000000
vt 0.875000 0.000000
vt 0.750000 0.000000
vt 0.750000 0.250000
vt 0.500000 0.250000
vt 0.500000 0.000000
vt 0.250000 0.875000
vt 0.250000 0.500000
vt 0.375000 0.500000
vt 0.375000 0.875000
vt 0.000000 1.000000
vt 0.000000 0.750000
vt 0.125000 0.750000
vt 0.125000 1.000000
vt 0.500000 0.750000
vt 0.500000 0.901896
vt 0.375000 0.901896
vt 0.375000 0.750000
vn 0.0000 0.0000 1.0000
vn -1.0000 0.0000 0.0000
vn 0.0000 0.0000 -1.0000
vn 1.0000 0.0000 0.0000
vn 0.0000 -1.0000 0.0000
usemtl Material.001
s off
f 1/1/1 2/2/1 4/3/1 3/4/1
f 4/5/2 2/6/2 5/7/2 6/8/2
f 6/9/3 5/10/3 7/11/3 8/12/3
f 8/13/2 7/14/2 12/15/2 11/16/2
f 11/17/1 12/18/1 14/19/1 13/20/1
f 1/21/4 3/22/4 16/23/4 15/24/4
f 15/25/1 16/26/1 18/27/1 17/28/1
f 17/29/4 18/30/4 20/31/4 19/32/4
f 7/33/1 8/34/1 22/35/1 21/36/1
f 19/37/1 20/38/1 24/39/1 23/40/1
f 10/41/3 9/42/3 25/43/3 26/44/3
f 9/42/3 10/41/3 28/45/3 27/46/3
f 27/47/2 28/48/2 30/49/2 29/50/2
f 29/51/1 30/52/1 32/53/1 31/54/1
f 2/55/3 4/56/3 34/57/3 33/58/3
f 30/59/4 29/60/4 35/61/4 36/62/4
f 36/62/4 35/61/4 37/63/4 38/64/4
f 35/65/1 36/66/1 40/67/1 39/68/1
f 38/69/3 37/70/3 41/71/3 42/72/3
f 42/73/2 41/74/2 43/75/2 44/76/2
f 41/77/1 42/78/1 46/79/1 45/80/1
f 23/81/2 24/82/2 48/83/2 47/84/2
f 18/30/4 17/29/4 49/85/4 50/86/4
f 3/22/4 1/21/4 51/87/4 52/88/4
f 20/38/1 19/37/1 53/89/1 54/90/1
f 32/91/5 30/92/5 55/93/5 56/94/5
f 4/95/5 6/96/5 58/97/5 57/98/5
f 46/99/5 42/100/5 59/101/5 60/102/5
f 18/103/5 50/104/5 62/105/5 61/106/5
f 34/107/5 4/108/5 63/109/5 64/110/5
