# Blender v2.81 (sub 16) OBJ File: ''
# www.blender.org
mtllib testtrack1.mtl
o Plane
v 1.103632 -0.041316 -0.993392
v -0.896368 -0.041316 -0.993392
v 1.103632 -0.041316 1.006608
v -0.896368 -0.041316 1.006608
v 0.993567 0.000000 -2.020945
v -0.909252 0.000000 -2.224441
v 2.314213 0.000000 -0.892766
v 2.233737 0.000000 0.997907
v 1.146636 0.000000 2.684408
v -0.896368 0.028536 2.882832
v -2.216766 -0.018003 1.006608
v -7.988392 -2.747784 -2.722207
v -3.901458 -0.846471 -2.045602
v -7.016466 -2.467785 -2.732084
v -6.038332 -2.122915 -2.658581
v -5.149740 -1.746933 -2.508894
v -4.437673 -1.376641 -2.297675
v -8.138933 -2.386018 0.992884
v -4.122371 -0.902625 1.669489
v -4.190778 -1.048288 -0.868086
v -8.207338 -2.531681 -1.544692
v -7.160362 -2.165728 1.156584
v -6.178174 -1.879913 1.321413
v -8.146812 -2.418923 0.625197
v -7.155330 -2.180914 0.735245
v -6.207551 -1.911040 0.880810
v -8.158840 -2.453568 0.136783
v -7.167816 -2.210750 0.265417
v -6.235334 -1.946110 0.409352
v -4.147869 -0.906075 1.305486
v -4.169775 -0.924222 0.818999
v -4.582885 -1.211906 1.590785
v -4.714044 -1.254266 1.155930
v -4.761844 -1.287866 0.680592
v -5.289636 -1.551539 1.471092
v -5.387292 -1.599746 1.020252
v -5.435253 -1.640211 0.546062
v -4.661512 -1.361602 -0.949291
v -5.373674 -1.703270 -1.070334
v -4.191926 -0.999439 -0.323700
v -4.751192 -1.345669 -0.398882
v -5.431058 -1.690732 -0.511446
v -4.184925 -0.956431 0.257607
v -4.777780 -1.319072 0.156165
v -5.451957 -1.670590 0.036664
v -8.190714 -2.512542 -1.004011
v -8.173971 -2.485803 -0.424608
v -7.239011 -2.315331 -1.383506
v -7.203481 -2.269290 -0.816507
v -7.183753 -2.241556 -0.255962
v -6.262207 -2.031631 -1.220014
v -6.258119 -2.000442 -0.651982
v -6.252023 -1.976475 -0.100041
v -3.952402 -0.886312 2.069592
v -7.968962 -2.245936 2.610383
v -4.385723 -1.160148 2.200671
v -5.080694 -1.462247 2.332482
v -5.969284 -1.763039 2.452122
v -6.964513 -2.033080 2.547880
v -20.019810 -2.250939 0.814386
v -19.986105 -2.234777 1.329705
v -19.830139 -1.933840 3.007616
v -19.327997 -2.214296 -1.706550
v -19.109053 -2.225970 -2.820658
v -17.898314 -3.025182 0.008276
v -17.885784 -3.051380 -0.547198
v -17.850817 -3.031218 -1.040824
v -15.931824 -3.131558 -2.538389
v -8.858109 -2.968560 -2.673983
v -14.381910 -3.242633 -2.545025
v -12.744341 -3.282070 -2.564285
v -11.179411 -3.246010 -2.594283
v -9.840307 -3.137981 -2.632083
v -8.875156 -2.410055 2.650804
v -16.051441 -2.726959 2.764455
v -9.889050 -2.545579 2.685924
v -11.256748 -2.653687 2.717606
v -12.844370 -2.723796 2.742749
v -14.496508 -2.749044 2.758892
v -16.207407 -2.985053 1.086544
v -9.041454 -2.549494 1.017455
v -14.652981 -2.970001 1.083163
v -13.002310 -2.911428 1.073349
v -11.416973 -2.815069 1.058065
v -10.052156 -2.690355 1.038805
v -9.077055 -2.746107 -1.513102
v -16.150770 -3.059902 -1.424281
v -10.059254 -2.918266 -1.485655
v -11.398357 -3.045273 -1.460894
v -12.963287 -3.114694 -1.441244
v -14.600857 -3.119735 -1.428628
v -9.056108 -2.586575 0.611038
v -16.241114 -3.009783 0.571225
v -10.072697 -2.729886 0.598735
v -11.442825 -2.854451 0.587637
v -13.032377 -2.948078 0.578829
v -14.685755 -3.001602 0.573174
v -9.067900 -2.629236 0.103070
v -16.252245 -3.050888 0.008276
v -10.084284 -2.778331 0.073777
v -11.454229 -2.905757 0.047351
v -13.043634 -2.999040 0.026380
v -14.696917 -3.049048 0.012915
v -9.075775 -2.672740 -0.456769
v -16.239717 -3.089939 -0.547198
v -10.085854 -2.829858 -0.484713
v -11.450111 -2.960984 -0.509922
v -13.035004 -3.053281 -0.529928
v -14.685389 -3.097716 -0.542772
v -9.078953 -2.712881 -1.013668
v -16.204748 -3.095483 -1.040824
v -10.077244 -2.878106 -1.022060
v -11.430868 -3.009470 -1.029630
v -13.007320 -3.094113 -1.035638
v -14.652287 -3.123752 -1.039495
v -18.633486 -2.494617 -2.732987
v -16.443079 -3.080992 -2.538389
v -18.251749 -2.646626 -2.672853
v -17.796293 -2.794742 -2.618605
v -17.311707 -2.924467 -2.575554
v -16.845421 -3.023102 -2.547913
v -16.562698 -2.710990 2.764455
v -19.167761 -2.202152 2.932092
v -16.985332 -2.676868 2.772660
v -17.510515 -2.599747 2.796471
v -18.086838 -2.487175 2.833557
v -18.657885 -2.350174 2.880289
v -19.323727 -2.503090 1.254182
v -16.718664 -2.982391 1.086545
v -18.813854 -2.649666 1.202379
v -18.242807 -2.782472 1.155647
v -17.666485 -2.888509 1.118560
v -17.141302 -2.957396 1.094749
v -16.662025 -3.027966 -1.424281
v -18.852430 -2.482942 -1.618879
v -17.850809 -3.031209 -1.040872
v -17.064363 -2.982855 -1.433805
v -17.530649 -2.895747 -1.461446
v -18.015236 -2.775171 -1.504497
v -18.470690 -2.632928 -1.558745
v -19.357431 -2.519251 0.738863
v -16.752369 -3.004460 0.571225
v -17.898312 -3.025179 0.008326
v -18.847555 -2.666116 0.687060
v -18.276508 -2.799762 0.640328
v -17.700186 -2.907106 0.603241
v -17.175003 -2.977640 0.579430
v -21.033342 -5.821782 0.277267
v -21.231079 -5.821782 -1.046517
v -19.347334 -5.821782 -0.111745
v -19.334805 -5.821782 -0.528057
v -19.299837 -5.821782 -0.898015
v -20.301451 -5.821782 -1.331251
v -19.299829 -5.821782 -0.898051
v -19.464256 -5.821782 -1.245524
v -19.919710 -5.821782 -1.286182
v -20.683971 -5.821782 0.097130
v -19.347332 -5.821782 -0.111707
v -20.296576 -5.821782 0.396984
v -19.725529 -5.821782 0.361960
v -17.589737 -4.368186 -2.993897
v -30.477198 -4.368186 -2.993896
v -17.589737 -4.368186 3.007116
v -30.477198 -4.368186 3.007117
v -21.506973 -4.126042 0.941149
v -21.447607 -4.109880 1.551210
v -21.172894 -3.808943 3.537605
v -20.288435 -4.089399 -2.043263
v -19.902794 -4.101073 -3.362201
v -3.287432 -0.365612 -1.513771
v -1.989459 -0.017846 -1.059295
v -2.260091 0.000000 -1.436379
v -2.942653 -0.185197 -1.304874
v -2.467562 -0.057905 -1.138524
v -2.057411 -0.017846 1.356371
v -3.377388 -0.382820 1.815500
v -2.164882 0.010825 2.100476
v -2.557373 -0.060211 1.515222
v -3.040518 -0.193801 1.683275
v -2.684150 -0.007776 0.437452
v -3.536775 -0.452782 -0.372275
v -2.928453 -0.064549 0.170573
v -3.240535 -0.227433 -0.125808
v -3.539402 -0.389866 1.458531
v -2.716324 -0.007776 1.172216
v -3.266890 -0.195975 1.361462
v -2.965622 -0.056120 1.256664
v -3.567935 -0.431683 0.046843
v -2.714814 -0.007776 0.621436
v -3.279982 -0.216883 0.226947
v -2.967718 -0.061722 0.437262
v -3.584774 -0.413106 0.480110
v -2.734677 -0.007776 0.803622
v -3.303861 -0.207595 0.585375
v -2.992704 -0.059234 0.703788
v -3.585349 -0.399194 0.885142
v -2.741796 -0.007776 0.966175
v -3.309689 -0.200639 0.914406
v -3.000927 -0.057370 0.944066
v -3.569563 -0.391356 1.222277
v -2.735472 -0.007776 1.093184
v -3.296873 -0.196720 1.181825
v -2.991575 -0.056320 1.134573
vt 0.000000 0.000000
vt 1.000000 0.000000
vt 1.000000 1.000000
vt 0.000000 1.000000
vt 0.000000 0.000000
vt 0.436870 0.436870
vt 0.318970 0.318970
vt 0.000000 0.000000
vt 0.000000 0.000000
vt 1.000000 0.000000
vt 0.000000 1.000000
vt 0.000000 0.000000
vt 1.000000 1.000000
vt 0.000000 1.000000
vt 1.000000 0.731024
vt 1.000000 0.817185
vt 1.000000 1.000000
vt 0.731024 0.731024
vt 0.431925 0.431925
vt 0.379341 0.379341
vt 0.000000 0.000000
vt 0.526514 0.526514
vt 0.526514 0.526514
vt 0.000000 0.000000
vt 1.000000 0.481011
vt 1.000000 0.000000
vt 1.000000 0.000000
vt 1.000000 0.421166
vt 0.688701 0.688701
vt 0.688701 0.688701
vt 1.000000 0.607670
vt 1.000000 0.647728
vt 1.000000 0.821918
vt 1.000000 0.816715
vt 0.942675 0.942675
vt 1.003259 1.003259
vt 0.585215 0.585215
vt 0.675506 0.675506
vt -0.018466 -0.018466
vt 0.484422 0.484422
vt 0.635924 0.635924
vt 0.594734 0.594734
vt 0.772331 0.772331
vt 0.779291 0.779291
vt 0.541556 0.541556
vt 0.743876 0.743876
vt 0.508509 0.508509
vt 0.731630 0.731630
vt 0.966896 0.966896
vt 0.968324 0.968324
vt 0.954513 0.954513
vt 0.974773 0.974773
vt 0.678362 0.678362
vt 0.419968 0.419968
vt 0.963437 0.963437
vt 1.000000 0.845504
vt 1.000000 0.876431
vt 1.000000 0.477287
vt 1.000000 0.661193
vt 1.000000 0.547333
vt 1.000000 0.714925
vt 1.000000 0.520575
vt 1.000000 0.698466
vt 1.000000 0.872021
vt 1.000000 0.430981
vt 1.000000 0.624305
vt 1.000000 0.666251
vt 1.000000 0.477032
vt 1.000000 0.830366
vt 1.000000 0.852904
vt 0.000000 0.000000
vt 0.006242 0.006242
vt 0.025705 0.025705
vt 0.084847 0.084847
vt 0.029213 0.029213
vt 1.000000 0.000000
vt 1.000000 0.016447
vt 1.000000 0.061422
vt 1.000000 0.108573
vt 1.000000 0.029989
vt 1.000000 0.901083
vt 1.000000 0.974168
vt 1.000000 1.022447
vt 1.000000 1.047803
vt 0.688701 0.688701
vt 0.866921 0.866921
vt 0.866921 0.866921
vt 0.866905 0.866905
vt 0.688701 0.688701
vt 1.000000 0.935649
vt 1.000000 0.935649
vt 1.000000 0.706530
vt 1.000000 0.706530
vt 0.755525 0.755525
vt 0.941721 0.941721
vt 1.000000 0.000000
vt 1.000000 0.000000
vt 1.000000 0.526513
vt 1.000000 0.526513
vt 1.000000 0.706507
vt 0.607221 0.607221
vt 0.000000 0.000000
vt 1.000000 0.645876
vt 1.000000 0.456044
vt 1.000000 0.000000
vt 1.000000 0.000000
vt 1.000000 0.857987
vt 0.526514 0.526514
vt 0.526862 0.526862
vt 0.687514 0.687514
vt 0.527873 0.527873
vt 0.684072 0.684072
vt 0.536284 0.536284
vt 0.685011 0.685011
vt 0.576316 0.576316
vt 0.726713 0.726713
vt 0.865001 0.865404
vt 0.859444 0.861013
vt 0.860043 0.863390
vt 0.909169 0.910413
vt 0.999165 0.936613
vt 0.996750 0.939401
vt 0.994612 0.938299
vt 0.999016 0.891454
vt 1.000000 0.707502
vt 1.000000 0.710317
vt 1.000000 0.716200
vt 1.000000 0.673183
vt 1.000000 0.525236
vt 1.000000 0.521530
vt 1.000000 0.528032
vt 1.000000 0.485552
vt 1.000000 -0.001200
vt 1.000000 -0.004660
vt 1.000000 0.012017
vt 1.000000 0.002857
vt 1.000000 0.000000
vt 0.000000 0.000000
vt 0.000635 0.000635
vt 0.002485 0.002485
vt 0.008494 0.008494
vt 0.002315 0.002315
vt 0.526514 0.526514
vt 0.000000 0.000000
vt 1.000000 0.520770
vt 1.000000 0.526513
vt 1.000000 0.526513
vt 0.688701 0.688701
vt 0.674008 0.674008
vt 0.688701 0.688701
vt 0.671402 0.671402
vt 0.665579 0.665579
vt 0.524116 0.524116
vt 0.686646 0.686646
vt 0.517156 0.517156
vt 0.680681 0.680681
vt 0.513758 0.513758
vt 0.677534 0.677534
vt 0.523244 0.523244
vt 0.685840 0.685840
vt 1.000000 0.000000
vt 1.000000 0.526513
vt 1.000000 0.521885
vt 1.000000 -0.004633
vt 1.000000 0.508451
vt 1.000000 -0.018078
vt 1.000000 0.509743
vt 1.000000 -0.016846
vt 1.000000 0.522217
vt 1.000000 -0.004316
vt -0.002671 -0.002671
vt -0.010421 -0.010421
vt -0.013952 -0.013952
vt -0.003577 -0.003577
vt 1.000000 0.000000
vt 1.000000 0.526513
vt 0.866921 0.866921
vt 0.866905 0.866905
vt 0.688701 0.688701
vt 0.688701 0.688701
vt 1.000000 0.526513
vt 1.000000 0.706507
vt 0.688701 0.688701
vt 0.688701 0.688701
vt 1.000000 0.526513
vt 1.000000 0.521885
vt 0.686646 0.686646
vt 1.000000 0.935649
vt 1.000000 0.706530
vt 0.680681 0.680681
vt 1.000000 0.526513
vt 1.000000 0.508451
vt 0.000000 0.000000
vt 1.000000 0.000000
vt 1.000000 1.000000
vt 0.000000 1.000000
vt 1.000000 0.000000
vt 1.000000 0.526513
vt 0.688701 0.688701
vt 0.526514 0.526514
vt 0.000000 0.000000
vt 1.000000 0.000000
vt 1.000000 0.000000
vt 0.186666 0.186666
vt 0.282960 0.282960
vt 0.000000 0.000000
vt 0.022621 0.022621
vt 1.000000 0.673171
vt 1.000000 0.520580
vt 1.000000 0.729742
vt 1.000000 0.605032
vt 1.000000 0.827510
vt 1.000000 0.852464
vt 1.029302 1.029229
vt 1.000540 0.829167
vt 1.049323 1.049323
vt 1.008354 0.863719
vt 1.000000 0.852423
vt 1.000000 0.960485
vt 0.719127 0.719127
vt 1.027895 1.027895
vt 0.768053 0.768053
vt 1.028072 1.028072
vt 1.000000 0.960603
vt 1.000000 1.033016
vt 0.492343 0.492343
vt 0.716897 0.716897
vt 0.541060 0.541060
vt 0.730759 0.730759
vt 1.000000 1.072165
vt 1.000000 -0.024218
vt 1.000000 -0.020529
vt 0.594604 0.594604
vt 0.174649 0.174649
vn 0.0000 1.0000 0.0000
vn -0.5868 0.7754 0.2334
vn -0.0019 0.9993 0.0367
vn -0.0353 0.9994 -0.0007
vn 0.0055 0.9995 -0.0313
vn 0.0182 0.9998 0.0030
vn 0.0177 0.9998 -0.0085
vn 0.0090 0.9993 -0.0372
vn -0.0377 0.9983 0.0442
vn -0.0367 0.9990 -0.0237
vn 0.3487 0.9163 -0.1968
vn -0.6237 0.7802 -0.0476
vn 0.3697 0.9276 -0.0533
vn -0.6421 0.7627 -0.0769
vn -0.6661 0.7454 -0.0255
vn -0.6665 0.7455 0.0070
vn -0.3893 0.8813 0.2679
vn -0.6572 0.7519 -0.0520
vn -0.2185 0.9741 -0.0586
vn -0.2699 0.9619 -0.0441
vn -0.3453 0.9379 -0.0343
vn -0.2285 0.9717 -0.0595
vn -0.2652 0.9626 -0.0550
vn -0.3486 0.9361 -0.0469
vn -0.5477 0.8346 0.0595
vn -0.5221 0.8528 -0.0080
vn -0.5171 0.8552 -0.0351
vn -0.4482 0.8936 0.0244
vn -0.4563 0.8895 -0.0234
vn -0.4569 0.8887 -0.0385
vn -0.5268 0.8448 -0.0937
vn -0.4302 0.8992 -0.0801
vn -0.3403 0.9389 -0.0525
vn -0.5162 0.8543 -0.0612
vn -0.4490 0.8917 -0.0571
vn -0.3472 0.9368 -0.0422
vn -0.2206 0.9742 -0.0469
vn -0.2326 0.9718 -0.0390
vn -0.2314 0.9716 -0.0499
vn -0.2670 0.9621 -0.0561
vn -0.2673 0.9628 -0.0385
vn -0.2657 0.9628 -0.0487
vn -0.3502 0.9356 -0.0443
vn -0.2099 0.9757 -0.0629
vn -0.2686 0.9619 -0.0521
vn -0.3332 0.9425 -0.0277
vn -0.4159 0.9090 0.0277
vn -0.5354 0.8332 0.1385
vn -0.2306 0.9563 -0.1798
vn -0.2893 0.9485 -0.1293
vn -0.3523 0.9307 -0.0985
vn -0.4289 0.8991 -0.0879
vn -0.6269 0.7760 -0.0700
vn -0.6539 0.7546 0.0544
vn 0.0189 0.9998 0.0021
vn 0.0194 0.9998 0.0009
vn 0.0196 0.9998 -0.0010
vn 0.0189 0.9998 -0.0046
vn 0.0143 0.9975 -0.0695
vn 0.0195 0.9981 -0.0582
vn 0.0312 0.9994 0.0170
vn -0.1832 0.9805 -0.0717
vn 0.0194 0.9993 0.0333
vn 0.0442 0.9916 0.1219
vn -0.1801 0.9814 -0.0658
vn -0.1796 0.9802 -0.0834
vn -0.2299 0.9721 -0.0457
vn 0.0804 0.9960 -0.0399
vn -0.2100 0.9762 -0.0538
vn -0.1938 0.9791 -0.0622
vn -0.0075 0.9985 -0.0544
vn -0.0339 0.9973 -0.0656
vn -0.0597 0.9954 -0.0750
vn -0.0907 0.9925 -0.0814
vn -0.1387 0.9868 -0.0835
vn -0.0030 0.9969 -0.0785
vn -0.0307 0.9957 -0.0874
vn -0.0576 0.9941 -0.0918
vn -0.0900 0.9918 -0.0909
vn -0.1402 0.9866 -0.0838
vn 0.0021 0.9969 -0.0787
vn -0.0277 0.9953 -0.0926
vn -0.0568 0.9935 -0.0983
vn -0.0919 0.9912 -0.0950
vn -0.1466 0.9857 -0.0825
vn 0.0117 0.9994 -0.0311
vn -0.0221 0.9974 -0.0679
vn -0.0549 0.9945 -0.0891
vn -0.0946 0.9911 -0.0932
vn -0.1565 0.9844 -0.0803
vn 0.0284 0.9981 0.0550
vn -0.0106 0.9997 -0.0221
vn -0.0492 0.9962 -0.0716
vn -0.0957 0.9914 -0.0896
vn -0.1682 0.9826 -0.0784
vn 0.0546 0.9956 -0.0761
vn 0.0092 0.9919 -0.1268
vn -0.0359 0.9852 -0.1677
vn -0.0903 0.9762 -0.1974
vn -0.1747 0.9604 -0.2172
vn 0.0018 0.9899 -0.1416
vn -0.0261 0.9926 -0.1188
vn -0.0534 0.9936 -0.0991
vn -0.0861 0.9928 -0.0835
vn -0.1369 0.9880 -0.0719
vn -0.2462 0.9432 -0.2230
vn 0.0180 0.9874 -0.1575
vn 0.0078 0.9989 -0.0459
vn 0.0985 0.9445 0.3133
vn 0.1451 0.9042 0.4017
vn 0.1829 0.8866 0.4248
vn 0.1624 0.9561 -0.2438
vn 0.1192 0.9655 -0.2313
vn 0.0595 0.9857 -0.1574
vn 0.2717 0.9612 -0.0482
vn 0.2233 0.9736 -0.0465
vn 0.1790 0.9828 -0.0459
vn 0.1294 0.9905 -0.0458
vn 0.0603 0.9972 -0.0449
vn 0.3590 0.9314 0.0599
vn 0.2986 0.9533 0.0444
vn 0.2477 0.9685 0.0277
vn 0.1949 0.9808 0.0079
vn 0.1273 0.9917 -0.0165
vn 0.2541 0.9477 -0.1932
vn 0.2110 0.9589 -0.1896
vn 0.1717 0.9677 -0.1844
vn 0.1276 0.9758 -0.1774
vn 0.0655 0.9836 -0.1679
vn 0.4782 0.8742 0.0848
vn -0.8884 0.4585 0.0219
vn -0.1819 0.2261 -0.9570
vn -0.7863 0.4215 0.4518
vn -0.7179 0.3967 -0.5720
vn -0.1096 0.1332 0.9850
vn 0.2699 0.0229 -0.9626
vn -0.8862 0.4620 -0.0353
vn -0.8842 0.4536 -0.1115
vn -0.0572 0.1180 -0.9914
vn 0.1502 0.0621 0.9867
vn -0.8859 0.4599 -0.0610
vn -0.0838 0.1232 0.9888
vn -0.8632 0.4550 -0.2189
vn -0.7831 0.6201 0.0470
vn -0.8012 0.5983 -0.0041
vn -0.8867 0.4609 -0.0375
vn -0.3818 0.2425 -0.8919
vn -0.3019 0.9091 -0.2868
vn -0.2608 0.9654 0.0060
vn -0.1027 0.9874 0.1204
vn -0.1010 0.9935 -0.0529
vn -0.2499 0.9670 0.0502
vn -0.3607 0.8728 0.3289
vn -0.5593 0.8246 -0.0850
vn -0.4062 0.9110 -0.0713
vn -0.1868 0.9818 -0.0351
vn -0.5742 0.8167 -0.0583
vn -0.4159 0.9080 -0.0496
vn -0.1890 0.9817 -0.0243
vn -0.5828 0.8121 -0.0282
vn -0.4208 0.9068 -0.0244
vn -0.1891 0.9819 -0.0117
vn -0.5825 0.8127 0.0118
vn -0.4191 0.9079 0.0104
vn -0.1869 0.9824 0.0060
vn -0.5656 0.8210 0.0774
vn -0.4034 0.9122 0.0719
vn -0.1787 0.9831 0.0391
vn -0.1107 0.9928 -0.0468
vn -0.3060 0.9491 -0.0747
vn -0.4980 0.8644 -0.0692
vn -0.5135 0.8303 0.2167
vn -0.3413 0.9104 0.2339
vn -0.1194 0.9717 0.2039
vn 0.0193 0.9998 0.0013
vn -0.1656 0.9467 0.2764
vn -0.0311 0.9858 0.1651
usemtl None
s off
f 1/1/1 2/2/1 4/3/1 3/4/1
f 176/5/2 184/6/2 19/7/2 54/8/2
f 2/2/3 1/1/3 5/9/3 6/10/3
f 1/1/4 3/4/4 8/11/4 7/12/4
f 3/4/5 4/3/5 10/13/5 9/14/5
f 180/15/6 189/16/6 11/17/6
f 4/3/7 11/17/7 185/18/7 175/19/7
f 10/13/8 4/3/8 175/19/8 177/20/8
f 1/1/9 7/12/9 5/9/9
f 3/4/10 9/14/10 8/11/10
f 123/21/11 128/22/11 61/23/11 62/24/11
f 181/25/12 170/26/12 13/27/12 20/28/12
f 128/22/13 141/29/13 60/30/13 61/23/13
f 181/25/14 20/28/14 40/31/14 188/32/14
f 192/33/15 43/34/15 31/35/15 196/36/15
f 196/36/16 31/35/16 30/37/16 200/38/16
f 176/5/17 179/39/17 186/40/17
f 188/32/18 40/31/18 43/34/18 192/33/18
f 18/41/19 22/42/19 25/43/19 24/44/19
f 22/42/20 23/45/20 26/46/20 25/43/20
f 23/45/21 35/47/21 36/48/21 26/46/21
f 24/44/22 25/43/22 28/49/22 27/50/22
f 25/43/23 26/46/23 29/51/23 28/49/23
f 26/46/24 36/48/24 37/52/24 29/51/24
f 19/7/25 30/37/25 33/53/25 32/54/25
f 30/37/26 31/35/26 34/55/26 33/53/26
f 31/35/27 43/34/27 44/56/27 34/55/27
f 32/54/28 33/53/28 36/48/28 35/47/28
f 33/53/29 34/55/29 37/52/29 36/48/29
f 34/55/30 44/56/30 45/57/30 37/52/30
f 20/28/31 38/58/31 41/59/31 40/31/31
f 38/58/32 39/60/32 42/61/32 41/59/32
f 39/60/33 51/62/33 52/63/33 42/61/33
f 40/31/34 41/59/34 44/56/34 43/34/34
f 41/59/35 42/61/35 45/57/35 44/56/35
f 42/61/36 52/63/36 53/64/36 45/57/36
f 21/65/37 46/66/37 49/67/37 48/68/37
f 46/66/38 47/69/38 50/70/38 49/67/38
f 47/69/39 27/50/39 28/49/39 50/70/39
f 48/68/40 49/67/40 52/63/40 51/62/40
f 49/67/41 50/70/41 53/64/41 52/63/41
f 50/70/42 28/49/42 29/51/42 53/64/42
f 29/51/43 37/52/43 45/57/43 53/64/43
f 18/41/44 55/71/44 59/72/44 22/42/44
f 22/42/45 59/72/45 58/73/45 23/45/45
f 23/45/46 58/73/46 57/74/46 35/47/46
f 35/47/47 57/74/47 56/75/47 32/54/47
f 32/54/48 56/75/48 54/8/48 19/7/48
f 12/76/49 21/65/49 48/68/49 14/77/49
f 14/77/50 48/68/50 51/62/50 15/78/50
f 15/78/51 51/62/51 39/60/51 16/79/51
f 16/79/52 39/60/52 38/58/52 17/80/52
f 17/80/53 38/58/53 20/28/53 13/27/53
f 200/38/54 30/37/54 19/7/54 184/6/54
f 189/16/55 193/81/55 11/17/55
f 193/81/56 197/82/56 11/17/56
f 197/82/57 201/83/57 11/17/57
f 201/83/58 185/84/58 11/17/58
f 93/85/59 99/86/59 65/87/59 143/88/59 142/89/59
f 99/86/60 105/90/60 66/91/60 65/87/60
f 105/90/61 111/92/61 67/93/61 66/91/61
f 92/94/62 24/44/62 27/50/62 98/95/62
f 2/2/63 6/10/63 172/96/63 171/97/63
f 111/92/64 87/98/64 134/99/64 136/100/64 67/93/64
f 55/71/65 18/41/65 81/101/65 74/102/65
f 81/101/66 18/41/66 24/44/66 92/94/66
f 110/103/67 46/66/67 21/65/67 86/104/67
f 87/98/68 68/105/68 117/106/68 134/99/68
f 104/107/69 47/69/69 46/66/69 110/103/69
f 98/95/70 27/50/70 47/69/70 104/107/70
f 93/85/71 80/108/71 82/109/71 97/110/71
f 97/110/72 82/109/72 83/111/72 96/112/72
f 96/112/73 83/111/73 84/113/73 95/114/73
f 95/114/74 84/113/74 85/115/74 94/116/74
f 94/116/75 85/115/75 81/101/75 92/94/75
f 99/86/76 93/85/76 97/110/76 103/117/76
f 103/117/77 97/110/77 96/112/77 102/118/77
f 102/118/78 96/112/78 95/114/78 101/119/78
f 101/119/79 95/114/79 94/116/79 100/120/79
f 100/120/80 94/116/80 92/94/80 98/95/80
f 105/90/81 99/86/81 103/117/81 109/121/81
f 109/121/82 103/117/82 102/118/82 108/122/82
f 108/122/83 102/118/83 101/119/83 107/123/83
f 107/123/84 101/119/84 100/120/84 106/124/84
f 106/124/85 100/120/85 98/95/85 104/107/85
f 111/92/86 105/90/86 109/121/86 115/125/86
f 115/125/87 109/121/87 108/122/87 114/126/87
f 114/126/88 108/122/88 107/123/88 113/127/88
f 113/127/89 107/123/89 106/124/89 112/128/89
f 112/128/90 106/124/90 104/107/90 110/103/90
f 87/98/91 111/92/91 115/125/91 91/129/91
f 91/129/92 115/125/92 114/126/92 90/130/92
f 90/130/93 114/126/93 113/127/93 89/131/93
f 89/131/94 113/127/94 112/128/94 88/132/94
f 88/132/95 112/128/95 110/103/95 86/104/95
f 68/105/96 87/98/96 91/129/96 70/133/96
f 70/133/97 91/129/97 90/130/97 71/134/97
f 71/134/98 90/130/98 89/131/98 72/135/98
f 72/135/99 89/131/99 88/132/99 73/136/99
f 73/136/100 88/132/100 86/104/100 69/137/100
f 80/108/101 75/138/101 79/139/101 82/109/101
f 82/109/102 79/139/102 78/140/102 83/111/102
f 83/111/103 78/140/103 77/141/103 84/113/103
f 84/113/104 77/141/104 76/142/104 85/115/104
f 85/115/105 76/142/105 74/102/105 81/101/105
f 21/65/106 12/76/106 69/137/106 86/104/106
f 75/138/107 80/108/107 129/143/107 122/144/107
f 80/108/108 93/85/108 142/89/108 129/143/108
f 134/99/109 137/145/109 136/100/109
f 137/145/110 138/146/110 136/100/110
f 138/146/111 139/147/111 136/100/111
f 145/148/112 146/149/112 143/150/112
f 146/149/113 147/151/113 143/150/113
f 147/151/114 142/152/114 143/150/114
f 141/29/115 128/22/115 130/153/115 144/154/115
f 144/154/116 130/153/116 131/155/116 145/156/116
f 145/156/117 131/155/117 132/157/117 146/158/117
f 146/158/118 132/157/118 133/159/118 147/160/118
f 147/160/119 133/159/119 129/143/119 142/89/119
f 116/161/120 135/162/120 140/163/120 118/164/120
f 118/164/121 140/163/121 139/165/121 119/166/121
f 119/166/122 139/165/122 138/167/122 120/168/122
f 120/168/123 138/167/123 137/169/123 121/170/123
f 121/170/124 137/169/124 134/99/124 117/106/124
f 128/22/125 123/21/125 127/171/125 130/153/125
f 130/153/126 127/171/126 126/172/126 131/155/126
f 131/155/127 126/172/127 125/173/127 132/157/127
f 132/157/128 125/173/128 124/174/128 133/159/128
f 133/159/129 124/174/129 122/144/129 129/143/129
f 135/162/130 116/161/130 64/175/130 63/176/130
f 143/88/131 65/87/131 150/177/131 158/178/131
f 60/30/132 141/29/132 157/179/132 148/180/132
f 136/100/133 139/147/133 155/181/133 154/182/133
f 145/148/134 143/150/134 158/183/134 160/184/134
f 140/163/135 135/162/135 153/185/135 156/186/135
f 141/29/136 144/154/136 159/187/136 157/179/136
f 65/87/137 66/91/137 151/188/137 150/177/137
f 67/93/138 136/100/138 154/182/138 152/189/138
f 144/154/139 145/156/139 160/190/139 159/187/139
f 135/162/140 63/176/140 149/191/140 153/185/140
f 66/91/141 67/93/141 152/189/141 151/188/141
f 139/165/142 140/163/142 156/186/142 155/192/142
f 161/193/1 162/194/1 164/195/1 163/196/1
f 63/176/143 64/175/143 169/197/143 168/198/143
f 61/23/144 60/30/144 165/199/144 166/200/144
f 62/24/145 61/23/145 166/200/145 167/201/145
f 63/176/146 168/198/146 149/191/146
f 60/30/147 148/180/147 165/199/147
f 170/26/148 173/202/148 172/96/148
f 173/202/149 174/203/149 172/96/149
f 174/203/150 171/97/150 172/96/150
f 175/19/151 178/204/151 177/205/151
f 178/204/152 179/206/152 177/205/152
f 179/206/153 176/207/153 177/205/153
f 181/25/154 188/32/154 190/208/154 183/209/154
f 183/209/155 190/208/155 191/210/155 182/211/155
f 182/211/156 191/210/156 189/16/156 180/15/156
f 188/32/157 192/33/157 194/212/157 190/208/157
f 190/208/158 194/212/158 195/213/158 191/210/158
f 191/210/159 195/213/159 193/81/159 189/16/159
f 192/33/160 196/36/160 198/214/160 194/215/160
f 194/215/161 198/214/161 199/216/161 195/217/161
f 195/218/162 199/219/162 197/82/162 193/81/162
f 196/36/163 200/38/163 202/220/163 198/221/163
f 198/221/164 202/220/164 203/222/164 199/223/164
f 199/224/165 203/225/165 201/83/165 197/82/165
f 200/38/166 184/6/166 186/226/166 202/227/166
f 202/227/167 186/226/167 187/228/167 203/229/167
f 203/225/168 187/230/168 185/84/168 201/83/168
f 180/15/169 171/97/169 174/231/169 182/211/169
f 182/211/170 174/231/170 173/232/170 183/209/170
f 183/209/171 173/232/171 170/26/171 181/25/171
f 176/5/172 186/40/172 184/6/172
f 179/39/173 187/233/173 186/40/173
f 178/234/174 185/18/174 187/233/174
f 4/3/175 2/2/175 171/97/175 180/15/175 11/17/175
f 179/39/176 178/234/176 187/233/176
f 178/234/177 175/19/177 185/18/177
