# Blender v2.81 (sub 16) OBJ File: ''
# www.blender.org
mtllib testtrack0.mtl
o Plane
v -1.000000 -0.041316 1.000000
v 1.000000 -0.041316 1.000000
v -1.000000 -0.041316 -1.000000
v 1.000000 -0.041316 -1.000000
v 2.924202 -0.000000 1.116011
v -0.889934 0.000000 2.027553
v 1.012884 0.000000 2.231049
v -2.210580 0.000000 0.899373
v -2.130103 -0.000000 -0.991299
v -1.043002 0.000000 -2.677800
v 1.000000 0.028536 -2.876224
v 3.043820 0.000000 -1.615699
v 3.143149 -0.000000 0.001903
v 3.199786 0.000000 -1.291525
v 2.320398 -0.018003 -1.000000
v 3.197128 -0.000000 -0.321971
v 3.232094 0.000000 -0.642677
v 3.244624 0.000000 -0.928825
v 3.233491 0.000000 -1.152402
v 8.092025 -2.747784 2.728816
v 4.005090 -0.846471 2.052210
v 7.120097 -2.467785 2.738692
v 6.141964 -2.122915 2.665189
v 5.253373 -1.746933 2.515502
v 4.541306 -1.376641 2.304284
v 8.242566 -2.386018 -0.986275
v 4.226004 -0.902625 -1.662881
v 4.294410 -1.048288 0.874694
v 8.310971 -2.531681 1.551300
v 7.263994 -2.165728 -1.149975
v 6.281807 -1.879913 -1.314805
v 8.250444 -2.418923 -0.618589
v 7.258963 -2.180914 -0.728637
v 6.311183 -1.911040 -0.874201
v 8.262472 -2.453568 -0.130175
v 7.271448 -2.210750 -0.258809
v 6.338965 -1.946110 -0.402744
v 4.251502 -0.906075 -1.298878
v 4.273408 -0.924222 -0.812390
v 4.686518 -1.211906 -1.584177
v 4.817677 -1.254266 -1.149322
v 4.865477 -1.287866 -0.673984
v 5.393269 -1.551539 -1.464484
v 5.490924 -1.599746 -1.013644
v 5.538885 -1.640211 -0.539454
v 4.765145 -1.361602 0.955900
v 5.477305 -1.703270 1.076942
v 4.295559 -0.999439 0.330308
v 4.854823 -1.345669 0.405490
v 5.534692 -1.690732 0.518054
v 4.288557 -0.956431 -0.250998
v 4.881413 -1.319072 -0.149557
v 5.555589 -1.670590 -0.030056
v 8.294346 -2.512542 1.010619
v 8.277603 -2.485803 0.431217
v 7.342643 -2.315331 1.390115
v 7.307115 -2.269290 0.823115
v 7.287385 -2.241556 0.262571
v 6.365839 -2.031631 1.226622
v 6.361751 -2.000442 0.658590
v 6.355656 -1.976475 0.106650
v 4.056033 -0.886312 -2.062983
v 8.072595 -2.245936 -2.603774
v 4.489355 -1.160148 -2.194063
v 5.184326 -1.462247 -2.325874
v 6.072917 -1.763039 -2.445514
v 7.068146 -2.033080 -2.541272
v 20.123442 -2.250939 -0.807777
v 20.089737 -2.234777 -1.323096
v 19.933771 -1.933840 -3.001006
v 19.431629 -2.214296 1.713160
v 19.212685 -2.225970 2.827268
v 18.001945 -3.025182 -0.001667
v 17.989416 -3.051380 0.553807
v 17.954449 -3.031218 1.047433
v 16.035456 -3.131558 2.544998
v 8.961740 -2.968560 2.680592
v 14.485543 -3.242633 2.551635
v 12.847974 -3.282070 2.570894
v 11.283043 -3.246010 2.600892
v 9.943939 -3.137981 2.638691
v 8.978789 -2.410055 -2.644195
v 16.155073 -2.726959 -2.757846
v 9.992682 -2.545579 -2.679315
v 11.360380 -2.653687 -2.710997
v 12.948002 -2.723796 -2.736140
v 14.600141 -2.749044 -2.752283
v 16.311039 -2.985053 -1.079935
v 9.145086 -2.549494 -1.010847
v 14.756613 -2.970001 -1.076554
v 13.105942 -2.911428 -1.066741
v 11.520606 -2.815069 -1.051456
v 10.155788 -2.690355 -1.032196
v 9.180687 -2.746107 1.519711
v 16.254402 -3.059902 1.430890
v 10.162886 -2.918266 1.492264
v 11.501989 -3.045273 1.467503
v 13.066920 -3.114694 1.447853
v 14.704490 -3.119735 1.435237
v 9.159740 -2.586575 -0.604429
v 16.344746 -3.009783 -0.564616
v 10.176330 -2.729886 -0.592126
v 11.546458 -2.854451 -0.581028
v 13.136009 -2.948078 -0.572220
v 14.789387 -3.001602 -0.566565
v 9.171533 -2.629236 -0.096461
v 16.355877 -3.050888 -0.001667
v 10.187916 -2.778331 -0.067168
v 11.557861 -2.905757 -0.040742
v 13.147266 -2.999040 -0.019771
v 14.800550 -3.049048 -0.006306
v 9.179407 -2.672740 0.463378
v 16.343349 -3.089939 0.553807
v 10.189487 -2.829858 0.491322
v 11.553743 -2.960984 0.516531
v 13.138636 -3.053281 0.536537
v 14.789021 -3.097716 0.549381
v 9.182585 -2.712881 1.020277
v 16.308380 -3.095483 1.047433
v 10.180877 -2.878106 1.028669
v 11.534500 -3.009470 1.036239
v 13.110952 -3.094113 1.042246
v 14.755919 -3.123752 1.046104
v 18.737118 -2.494617 2.739597
v 16.546711 -3.080992 2.544998
v 18.355381 -2.646626 2.679463
v 17.899925 -2.794742 2.625215
v 17.415339 -2.924467 2.582163
v 16.949053 -3.023102 2.554523
v 16.666330 -2.710990 -2.757846
v 19.271393 -2.202152 -2.925483
v 17.088964 -2.676868 -2.766050
v 17.614147 -2.599747 -2.789861
v 18.190470 -2.487175 -2.826948
v 18.761517 -2.350174 -2.873680
v 19.427359 -2.503090 -1.247572
v 16.822296 -2.982391 -1.079935
v 18.917486 -2.649666 -1.195769
v 18.346439 -2.782472 -1.149038
v 17.770117 -2.888509 -1.111951
v 17.244934 -2.957396 -1.088140
v 16.765657 -3.027966 1.430890
v 18.956062 -2.482942 1.625489
v 17.954441 -3.031209 1.047481
v 17.167995 -2.982855 1.440414
v 17.634281 -2.895747 1.468055
v 18.118868 -2.775171 1.511106
v 18.574322 -2.632928 1.565354
v 19.461063 -2.519251 -0.732253
v 16.856001 -3.004460 -0.564616
v 18.001944 -3.025179 -0.001717
v 18.951187 -2.666116 -0.680450
v 18.380140 -2.799762 -0.633719
v 17.803818 -2.907106 -0.596632
v 17.278635 -2.977640 -0.572821
v 21.136974 -5.821782 -0.270657
v 21.334711 -5.821782 1.053127
v 19.450966 -5.821782 0.118354
v 19.438437 -5.821782 0.534666
v 19.403469 -5.821782 0.904624
v 20.405083 -5.821782 1.337860
v 19.403461 -5.821782 0.904660
v 19.567888 -5.821782 1.252134
v 20.023342 -5.821782 1.292791
v 20.787603 -5.821782 -0.090520
v 19.450964 -5.821782 0.118317
v 20.400208 -5.821782 -0.390374
v 19.829161 -5.821782 -0.355350
v 17.693369 -4.368186 3.000506
v 30.580830 -4.368186 3.000506
v 17.693369 -4.368186 -3.000506
v 30.580830 -4.368186 -3.000506
v 21.610605 -4.126042 -0.934539
v 21.551239 -4.109880 -1.544600
v 21.276525 -3.808943 -3.530995
v 20.392067 -4.089399 2.049873
v 20.006426 -4.101073 3.368811
vt 0.000000 0.000000
vt 1.000000 0.000000
vt 1.000000 1.000000
vt 0.000000 1.000000
vt 1.000000 1.000000
vt 0.526513 0.526513
vt 0.000000 0.000000
vt 0.000000 0.000000
vt 1.000000 0.000000
vt 0.000000 1.000000
vt 0.000000 0.000000
vt 1.000000 1.000000
vt 0.000000 1.000000
vt 0.318970 0.318970
vt 0.000000 0.000000
vt 1.000000 0.000000
vt 0.000000 0.000000
vt 0.526514 0.526514
vt 0.526514 0.526514
vt 0.000000 0.000000
vt 1.000000 0.526514
vt 0.688701 0.688701
vt 0.688701 0.688701
vt 1.000000 0.678186
vt 1.000000 0.825873
vt 1.000000 0.954527
vt 1.000000 1.039514
vt 1.000000 1.084149
vt 0.635924 0.635924
vt 0.594734 0.594734
vt 0.772331 0.772331
vt 0.779291 0.779291
vt 0.541556 0.541556
vt 0.743876 0.743876
vt 0.508509 0.508509
vt 0.731630 0.731630
vt 0.966896 0.966896
vt 0.968324 0.968324
vt 0.954513 0.954513
vt 0.974773 0.974773
vt 0.585215 0.585215
vt 0.678362 0.678362
vt 0.419968 0.419968
vt 0.942675 0.942675
vt 0.963437 0.963437
vt 1.000000 0.816715
vt 1.000000 0.845504
vt 1.000000 0.876431
vt 1.000000 0.421166
vt 1.000000 0.477287
vt 1.000000 0.661193
vt 1.000000 0.607670
vt 1.000000 0.547333
vt 1.000000 0.714925
vt 1.000000 0.520575
vt 1.000000 0.698466
vt 1.000000 0.872021
vt 1.000000 0.430981
vt 1.000000 0.624305
vt 1.000000 0.666251
vt 1.000000 0.477032
vt 1.000000 0.830366
vt 1.000000 0.852904
vt 0.000000 0.000000
vt 0.006242 0.006242
vt 0.025705 0.025705
vt 0.084847 0.084847
vt 0.029213 0.029213
vt 1.000000 0.000000
vt 1.000000 0.016447
vt 1.000000 0.061422
vt 1.000000 0.108573
vt 1.000000 0.029989
vt 1.000000 0.000000
vt 1.049323 1.049323
vt 0.744156 0.744156
vt 0.688701 0.688701
vt 0.866921 0.866921
vt 0.866921 0.866921
vt 0.866905 0.866905
vt 0.688701 0.688701
vt 1.000000 0.935649
vt 1.000000 0.935649
vt 1.000000 0.706530
vt 1.000000 0.706530
vt 0.755525 0.755525
vt 0.941721 0.941721
vt 1.000000 0.526513
vt 1.000000 0.526513
vt 1.000000 0.706507
vt 0.607221 0.607221
vt 0.000000 0.000000
vt 1.000000 0.645876
vt 1.000000 0.456044
vt 1.000000 0.000000
vt 1.000000 0.000000
vt 1.000000 0.857987
vt 0.526514 0.526514
vt 0.526862 0.526862
vt 0.687514 0.687514
vt 0.527873 0.527873
vt 0.684072 0.684072
vt 0.536284 0.536284
vt 0.685011 0.685011
vt 0.576316 0.576316
vt 0.726713 0.726713
vt 0.865001 0.865404
vt 0.859444 0.861013
vt 0.860043 0.863390
vt 0.909169 0.910413
vt 0.999165 0.936613
vt 0.996750 0.939401
vt 0.994612 0.938299
vt 0.999016 0.891454
vt 1.000000 0.707502
vt 1.000000 0.710317
vt 1.000000 0.716200
vt 1.000000 0.673183
vt 1.000000 0.525236
vt 1.000000 0.521530
vt 1.000000 0.528032
vt 1.000000 0.485552
vt 1.000000 -0.001200
vt 1.000000 -0.004660
vt 1.000000 0.012017
vt 1.000000 0.002857
vt 1.000000 0.000000
vt 0.000000 0.000000
vt 0.000635 0.000635
vt 0.002485 0.002485
vt 0.008494 0.008494
vt 0.002315 0.002315
vt 0.526514 0.526514
vt 0.000000 0.000000
vt 1.000000 0.520770
vt 1.000000 0.526513
vt 1.000000 0.526513
vt 0.688701 0.688701
vt 0.674008 0.674008
vt 0.688701 0.688701
vt 0.671402 0.671402
vt 0.665579 0.665579
vt 0.524116 0.524116
vt 0.686646 0.686646
vt 0.517156 0.517156
vt 0.680681 0.680681
vt 0.513758 0.513758
vt 0.677534 0.677534
vt 0.523244 0.523244
vt 0.685840 0.685840
vt 1.000000 0.000000
vt 1.000000 0.526513
vt 1.000000 0.521885
vt 1.000000 -0.004633
vt 1.000000 0.508451
vt 1.000000 -0.018078
vt 1.000000 0.509743
vt 1.000000 -0.016846
vt 1.000000 0.522217
vt 1.000000 -0.004316
vt -0.002671 -0.002671
vt -0.010421 -0.010421
vt -0.013952 -0.013952
vt -0.003577 -0.003577
vt 1.000000 0.000000
vt 1.000000 0.526513
vt 0.866921 0.866921
vt 0.866905 0.866905
vt 0.688701 0.688701
vt 0.688701 0.688701
vt 1.000000 0.526513
vt 1.000000 0.706507
vt 0.688701 0.688701
vt 0.688701 0.688701
vt 1.000000 0.526513
vt 1.000000 0.521885
vt 0.686646 0.686646
vt 1.000000 0.935649
vt 1.000000 0.706530
vt 0.680681 0.680681
vt 1.000000 0.526513
vt 1.000000 0.508451
vt 0.000000 0.000000
vt 1.000000 0.000000
vt 1.000000 1.000000
vt 0.000000 1.000000
vt 1.000000 0.000000
vt 1.000000 0.526513
vt 0.688701 0.688701
vt 0.526514 0.526514
vt 0.000000 0.000000
vn 0.0000 1.0000 0.0000
vn -0.0177 0.9998 0.0085
vn 0.0019 0.9993 -0.0367
vn 0.0353 0.9994 0.0007
vn -0.0055 0.9995 0.0313
vn 0.5822 0.7754 -0.2446
vn -0.0090 0.9993 0.0372
vn -0.0194 0.9993 -0.0333
vn 0.0377 0.9983 -0.0442
vn 0.0367 0.9990 0.0237
vn -0.3487 0.9163 0.1968
vn -0.0195 0.9998 -0.0018
vn -0.3697 0.9276 0.0533
vn -0.0182 0.9998 -0.0030
vn -0.0189 0.9998 -0.0021
vn -0.0194 0.9998 -0.0008
vn -0.0196 0.9998 0.0010
vn -0.0189 0.9998 0.0046
vn 0.2185 0.9741 0.0586
vn 0.2699 0.9619 0.0441
vn 0.3453 0.9379 0.0343
vn 0.2285 0.9717 0.0595
vn 0.2652 0.9626 0.0550
vn 0.3486 0.9361 0.0469
vn 0.5477 0.8346 -0.0595
vn 0.5221 0.8528 0.0080
vn 0.5171 0.8552 0.0351
vn 0.4482 0.8936 -0.0244
vn 0.4563 0.8895 0.0234
vn 0.4569 0.8887 0.0385
vn 0.5268 0.8448 0.0937
vn 0.4302 0.8992 0.0801
vn 0.3403 0.9388 0.0525
vn 0.5162 0.8543 0.0612
vn 0.4490 0.8917 0.0571
vn 0.3472 0.9368 0.0422
vn 0.2206 0.9742 0.0469
vn 0.2326 0.9718 0.0390
vn 0.2314 0.9716 0.0499
vn 0.2670 0.9621 0.0561
vn 0.2673 0.9628 0.0385
vn 0.2657 0.9628 0.0487
vn 0.3502 0.9356 0.0443
vn 0.2099 0.9757 0.0629
vn 0.2686 0.9619 0.0521
vn 0.3332 0.9425 0.0277
vn 0.4159 0.9090 -0.0277
vn 0.5354 0.8332 -0.1385
vn 0.2306 0.9563 0.1798
vn 0.2893 0.9485 0.1293
vn 0.3523 0.9307 0.0985
vn 0.4289 0.8991 0.0879
vn 0.6269 0.7760 0.0700
vn 0.6392 0.7645 0.0836
vn 0.6560 0.7527 0.0562
vn 0.6660 0.7455 0.0263
vn 0.6664 0.7455 -0.0120
vn 0.6507 0.7559 -0.0714
vn -0.0143 0.9975 0.0695
vn -0.0195 0.9981 0.0582
vn -0.0312 0.9994 -0.0170
vn 0.1832 0.9805 0.0717
vn 0.6137 0.7867 0.0668
vn -0.0442 0.9916 -0.1219
vn 0.1801 0.9814 0.0658
vn 0.1796 0.9802 0.0834
vn 0.2299 0.9721 0.0457
vn -0.0804 0.9960 0.0399
vn 0.2100 0.9762 0.0538
vn 0.1938 0.9791 0.0622
vn 0.0075 0.9985 0.0544
vn 0.0339 0.9973 0.0656
vn 0.0597 0.9954 0.0750
vn 0.0907 0.9925 0.0814
vn 0.1387 0.9868 0.0835
vn 0.0030 0.9969 0.0785
vn 0.0307 0.9957 0.0874
vn 0.0576 0.9941 0.0918
vn 0.0900 0.9918 0.0909
vn 0.1402 0.9866 0.0838
vn -0.0021 0.9969 0.0787
vn 0.0277 0.9953 0.0926
vn 0.0568 0.9935 0.0983
vn 0.0919 0.9912 0.0950
vn 0.1466 0.9857 0.0825
vn -0.0117 0.9994 0.0311
vn 0.0221 0.9974 0.0679
vn 0.0549 0.9945 0.0891
vn 0.0946 0.9911 0.0932
vn 0.1565 0.9844 0.0803
vn -0.0284 0.9981 -0.0550
vn 0.0106 0.9997 0.0221
vn 0.0492 0.9962 0.0716
vn 0.0957 0.9914 0.0896
vn 0.1682 0.9826 0.0784
vn -0.0546 0.9956 0.0761
vn -0.0092 0.9919 0.1268
vn 0.0359 0.9852 0.1677
vn 0.0903 0.9762 0.1974
vn 0.1747 0.9604 0.2172
vn -0.0018 0.9899 0.1416
vn 0.0261 0.9926 0.1188
vn 0.0534 0.9936 0.0991
vn 0.0861 0.9928 0.0835
vn 0.1369 0.9880 0.0719
vn 0.2462 0.9432 0.2230
vn -0.0180 0.9874 0.1575
vn -0.0078 0.9989 0.0459
vn -0.0985 0.9445 -0.3133
vn -0.1451 0.9042 -0.4017
vn -0.1829 0.8866 -0.4248
vn -0.1624 0.9561 0.2438
vn -0.1192 0.9655 0.2313
vn -0.0595 0.9857 0.1574
vn -0.2717 0.9612 0.0482
vn -0.2233 0.9736 0.0465
vn -0.1790 0.9828 0.0459
vn -0.1294 0.9905 0.0458
vn -0.0603 0.9972 0.0449
vn -0.3590 0.9314 -0.0599
vn -0.2986 0.9533 -0.0444
vn -0.2477 0.9685 -0.0277
vn -0.1949 0.9808 -0.0079
vn -0.1273 0.9917 0.0165
vn -0.2541 0.9477 0.1932
vn -0.2110 0.9589 0.1896
vn -0.1717 0.9677 0.1844
vn -0.1276 0.9758 0.1774
vn -0.0655 0.9836 0.1679
vn -0.4782 0.8742 -0.0848
vn 0.8883 0.4588 -0.0219
vn 0.1819 0.2261 0.9570
vn 0.7863 0.4215 -0.4518
vn 0.7179 0.3967 0.5720
vn 0.1096 0.1332 -0.9850
vn -0.2699 0.0229 0.9626
vn 0.8862 0.4620 0.0353
vn 0.8839 0.4542 0.1115
vn 0.0572 0.1180 0.9914
vn -0.1502 0.0621 -0.9867
vn 0.8859 0.4599 0.0610
vn 0.0838 0.1232 -0.9888
vn 0.8632 0.4550 0.2189
vn 0.7831 0.6201 -0.0470
vn 0.8012 0.5983 0.0041
vn 0.8867 0.4609 0.0375
vn 0.3818 0.2425 0.8919
usemtl None
s off
f 1/1/1 2/2/1 4/3/1 3/4/1
f 4/3/2 15/5/2 14/6/2 12/7/2
f 2/2/3 1/1/3 6/8/3 7/9/3
f 1/1/4 3/4/4 9/10/4 8/11/4
f 3/4/5 4/3/5 11/12/5 10/13/5
f 12/7/6 14/6/6 27/14/6 62/15/6
f 11/12/7 4/3/7 12/7/7
f 2/2/8 7/9/8 5/16/8
f 1/1/9 8/11/9 6/8/9
f 3/4/10 10/13/10 9/10/10
f 131/17/11 136/18/11 69/19/11 70/20/11
f 4/3/12 2/2/12 5/16/12 13/21/12 15/5/12
f 136/18/13 149/22/13 68/23/13 69/19/13
f 13/21/14 16/24/14 15/5/14
f 16/24/15 17/25/15 15/5/15
f 17/25/16 18/26/16 15/5/16
f 18/26/17 19/27/17 15/5/17
f 19/27/18 14/28/18 15/5/18
f 26/29/19 30/30/19 33/31/19 32/32/19
f 30/30/20 31/33/20 34/34/20 33/31/20
f 31/33/21 43/35/21 44/36/21 34/34/21
f 32/32/22 33/31/22 36/37/22 35/38/22
f 33/31/23 34/34/23 37/39/23 36/37/23
f 34/34/24 44/36/24 45/40/24 37/39/24
f 27/14/25 38/41/25 41/42/25 40/43/25
f 38/41/26 39/44/26 42/45/26 41/42/26
f 39/44/27 51/46/27 52/47/27 42/45/27
f 40/43/28 41/42/28 44/36/28 43/35/28
f 41/42/29 42/45/29 45/40/29 44/36/29
f 42/45/30 52/47/30 53/48/30 45/40/30
f 28/49/31 46/50/31 49/51/31 48/52/31
f 46/50/32 47/53/32 50/54/32 49/51/32
f 47/53/33 59/55/33 60/56/33 50/54/33
f 48/52/34 49/51/34 52/47/34 51/46/34
f 49/51/35 50/54/35 53/48/35 52/47/35
f 50/54/36 60/56/36 61/57/36 53/48/36
f 29/58/37 54/59/37 57/60/37 56/61/37
f 54/59/38 55/62/38 58/63/38 57/60/38
f 55/62/39 35/38/39 36/37/39 58/63/39
f 56/61/40 57/60/40 60/56/40 59/55/40
f 57/60/41 58/63/41 61/57/41 60/56/41
f 58/63/42 36/37/42 37/39/42 61/57/42
f 37/39/43 45/40/43 53/48/43 61/57/43
f 26/29/44 63/64/44 67/65/44 30/30/44
f 30/30/45 67/65/45 66/66/45 31/33/45
f 31/33/46 66/66/46 65/67/46 43/35/46
f 43/35/47 65/67/47 64/68/47 40/43/47
f 40/43/48 64/68/48 62/15/48 27/14/48
f 20/69/49 29/58/49 56/61/49 22/70/49
f 22/70/50 56/61/50 59/55/50 23/71/50
f 23/71/51 59/55/51 47/53/51 24/72/51
f 24/72/52 47/53/52 46/50/52 25/73/52
f 25/73/53 46/50/53 28/49/53 21/74/53
f 13/21/54 28/49/54 48/52/54 16/24/54
f 16/24/55 48/52/55 51/46/55 17/25/55
f 17/25/56 51/46/56 39/44/56 18/75/56
f 18/75/57 39/44/57 38/41/57 19/76/57
f 19/76/58 38/41/58 27/14/58 14/6/58
f 101/77/59 107/78/59 73/79/59 151/80/59 150/81/59
f 107/78/60 113/82/60 74/83/60 73/79/60
f 113/82/61 119/84/61 75/85/61 74/83/61
f 100/86/62 32/32/62 35/38/62 106/87/62
f 13/21/63 5/16/63 21/74/63 28/49/63
f 119/84/64 95/88/64 142/89/64 144/90/64 75/85/64
f 63/64/65 26/29/65 89/91/65 82/92/65
f 89/91/66 26/29/66 32/32/66 100/86/66
f 118/93/67 54/59/67 29/58/67 94/94/67
f 95/88/68 76/95/68 125/96/68 142/89/68
f 112/97/69 55/62/69 54/59/69 118/93/69
f 106/87/70 35/38/70 55/62/70 112/97/70
f 101/77/71 88/98/71 90/99/71 105/100/71
f 105/100/72 90/99/72 91/101/72 104/102/72
f 104/102/73 91/101/73 92/103/73 103/104/73
f 103/104/74 92/103/74 93/105/74 102/106/74
f 102/106/75 93/105/75 89/91/75 100/86/75
f 107/78/76 101/77/76 105/100/76 111/107/76
f 111/107/77 105/100/77 104/102/77 110/108/77
f 110/108/78 104/102/78 103/104/78 109/109/78
f 109/109/79 103/104/79 102/106/79 108/110/79
f 108/110/80 102/106/80 100/86/80 106/87/80
f 113/82/81 107/78/81 111/107/81 117/111/81
f 117/111/82 111/107/82 110/108/82 116/112/82
f 116/112/83 110/108/83 109/109/83 115/113/83
f 115/113/84 109/109/84 108/110/84 114/114/84
f 114/114/85 108/110/85 106/87/85 112/97/85
f 119/84/86 113/82/86 117/111/86 123/115/86
f 123/115/87 117/111/87 116/112/87 122/116/87
f 122/116/88 116/112/88 115/113/88 121/117/88
f 121/117/89 115/113/89 114/114/89 120/118/89
f 120/118/90 114/114/90 112/97/90 118/93/90
f 95/88/91 119/84/91 123/115/91 99/119/91
f 99/119/92 123/115/92 122/116/92 98/120/92
f 98/120/93 122/116/93 121/117/93 97/121/93
f 97/121/94 121/117/94 120/118/94 96/122/94
f 96/122/95 120/118/95 118/93/95 94/94/95
f 76/95/96 95/88/96 99/119/96 78/123/96
f 78/123/97 99/119/97 98/120/97 79/124/97
f 79/124/98 98/120/98 97/121/98 80/125/98
f 80/125/99 97/121/99 96/122/99 81/126/99
f 81/126/100 96/122/100 94/94/100 77/127/100
f 88/98/101 83/128/101 87/129/101 90/99/101
f 90/99/102 87/129/102 86/130/102 91/101/102
f 91/101/103 86/130/103 85/131/103 92/103/103
f 92/103/104 85/131/104 84/132/104 93/105/104
f 93/105/105 84/132/105 82/92/105 89/91/105
f 29/58/106 20/69/106 77/127/106 94/94/106
f 83/128/107 88/98/107 137/133/107 130/134/107
f 88/98/108 101/77/108 150/81/108 137/133/108
f 142/89/109 145/135/109 144/90/109
f 145/135/110 146/136/110 144/90/110
f 146/136/111 147/137/111 144/90/111
f 153/138/112 154/139/112 151/140/112
f 154/139/113 155/141/113 151/140/113
f 155/141/114 150/142/114 151/140/114
f 149/22/115 136/18/115 138/143/115 152/144/115
f 152/144/116 138/143/116 139/145/116 153/146/116
f 153/146/117 139/145/117 140/147/117 154/148/117
f 154/148/118 140/147/118 141/149/118 155/150/118
f 155/150/119 141/149/119 137/133/119 150/81/119
f 124/151/120 143/152/120 148/153/120 126/154/120
f 126/154/121 148/153/121 147/155/121 127/156/121
f 127/156/122 147/155/122 146/157/122 128/158/122
f 128/158/123 146/157/123 145/159/123 129/160/123
f 129/160/124 145/159/124 142/89/124 125/96/124
f 136/18/125 131/17/125 135/161/125 138/143/125
f 138/143/126 135/161/126 134/162/126 139/145/126
f 139/145/127 134/162/127 133/163/127 140/147/127
f 140/147/128 133/163/128 132/164/128 141/149/128
f 141/149/129 132/164/129 130/134/129 137/133/129
f 143/152/130 124/151/130 72/165/130 71/166/130
f 151/80/131 73/79/131 158/167/131 166/168/131
f 68/23/132 149/22/132 165/169/132 156/170/132
f 144/90/133 147/137/133 163/171/133 162/172/133
f 153/138/134 151/140/134 166/173/134 168/174/134
f 148/153/135 143/152/135 161/175/135 164/176/135
f 149/22/136 152/144/136 167/177/136 165/169/136
f 73/79/137 74/83/137 159/178/137 158/167/137
f 75/85/138 144/90/138 162/172/138 160/179/138
f 152/144/139 153/146/139 168/180/139 167/177/139
f 143/152/140 71/166/140 157/181/140 161/175/140
f 74/83/141 75/85/141 160/179/141 159/178/141
f 147/155/142 148/153/142 164/176/142 163/182/142
f 169/183/1 170/184/1 172/185/1 171/186/1
f 71/166/143 72/165/143 177/187/143 176/188/143
f 69/19/144 68/23/144 173/189/144 174/190/144
f 70/20/145 69/19/145 174/190/145 175/191/145
f 71/166/146 176/188/146 157/181/146
f 68/23/147 156/170/147 173/189/147
